<svg xmlns="http://www.w3.org/2000/svg" viewBox="0 0 600 230">
      <path d="M111.832 168.54a30.782 30.782 0 0 0-8.9-9.86c-3.69-2.65-7.9-4.77-12.62-6.38-4.73-1.6-9.59-2.96-14.55-4.09-4.81-1.12-9.55-2.16-14.19-3.12-4.66-.96-8.78-2.05-12.39-3.25-3.61-1.2-6.53-2.77-8.78-4.69-2.24-1.92-3.36-4.41-3.36-7.45 0-2.57.64-4.61 1.92-6.14 1.28-1.52 2.84-2.68 4.69-3.49 1.84-.79 3.89-1.32 6.13-1.56 2.25-.24 4.33-.36 6.26-.36 6.09 0 11.38 1.17 15.87 3.49s6.97 6.77 7.45 13.35h32.47c-.64-7.7-2.61-14.07-5.89-19.12-3.29-5.05-7.42-9.1-12.39-12.15-4.97-3.04-10.62-5.21-16.95-6.49-6.34-1.28-12.87-1.93-19.6-1.93-6.74 0-13.31.61-19.72 1.81-6.42 1.2-12.19 3.29-17.32 6.25-5.13 2.97-9.26 7.02-12.39 12.15-3.12 5.13-4.68 11.7-4.68 19.72 0 5.45 1.12 10.06 3.36 13.82 2.25 3.77 5.21 6.9 8.9 9.39 3.69 2.48 7.9 4.48 12.63 6.01 4.72 1.52 9.57 2.85 14.55 3.96 12.18 2.57 21.68 5.14 28.49 7.7 6.82 2.57 10.23 6.42 10.23 11.54 0 3.05-.72 5.58-2.17 7.58a16.225 16.225 0 0 1-5.41 4.81c-2.16 1.2-4.57 2.09-7.21 2.65-2.65.56-5.17.84-7.58.84-3.36 0-6.61-.4-9.74-1.2-3.13-.81-5.89-2.05-8.3-3.73-2.4-1.69-4.37-3.85-5.89-6.5-1.53-2.64-2.28-5.8-2.28-9.49H.002c.32 8.33 2.2 15.27 5.65 20.8 3.45 5.53 7.86 9.98 13.23 13.35 5.37 3.36 11.5 5.77 18.4 7.21 6.89 1.44 13.95 2.16 21.16 2.16a106 106 0 0 0 20.8-2.04c6.82-1.36 12.87-3.73 18.16-7.09 5.29-3.37 9.58-7.82 12.87-13.35 3.28-5.53 4.93-12.39 4.93-20.56 0-5.77-1.12-10.63-3.37-14.55zm158.96-73.24c-4.33 0-8.5.65-12.5 1.93a45.723 45.723 0 0 0-11.3 5.41 42.692 42.692 0 0 0-9.39 8.42c-2.72 3.29-4.89 6.85-6.49 10.7h-.48V98.67h-32.47v124.34h34.15v-56.04c0-5.61.56-10.82 1.69-15.63 1.12-4.81 3-9.02 5.65-12.63 2.64-3.6 6.13-6.45 10.46-8.53 4.33-2.09 9.62-3.13 15.87-3.13 2.09 0 4.25.12 6.5.36 2.24.24 4.17.52 5.77.84V96.51c-2.73-.8-5.21-1.21-7.46-1.21zm122.66 116.17c-.65-5.14-.97-10.51-.97-16.12v-64.69c0-7.54-1.68-13.59-5.05-18.16s-7.69-8.14-12.98-10.7c-5.29-2.57-11.15-4.29-17.56-5.17-6.42-.88-12.75-1.33-19-1.33-6.89 0-13.75.69-20.56 2.05-6.82 1.36-12.95 3.65-18.4 6.85-5.45 3.21-9.94 7.46-13.47 12.75-3.53 5.29-5.53 11.95-6.01 19.96h34.15c.64-6.73 2.89-11.54 6.73-14.43 3.85-2.89 9.14-4.33 15.88-4.33 3.04 0 5.89.2 8.53.6 2.65.4 4.97 1.2 6.98 2.41 2 1.2 3.6 2.88 4.81 5.05 1.2 2.16 1.8 5.09 1.8 8.78.16 3.52-.88 6.21-3.13 8.05-2.24 1.85-5.29 3.25-9.13 4.21-3.85.96-8.26 1.68-13.23 2.17-4.97.48-10.02 1.12-15.15 1.92-5.14.8-10.22 1.89-15.27 3.25s-9.54 3.4-13.47 6.13c-3.93 2.73-7.14 6.37-9.62 10.94-2.49 4.57-3.73 10.39-3.73 17.44 0 6.41 1.08 11.94 3.25 16.59 2.16 4.65 5.17 8.5 9.02 11.55 3.84 3.04 8.33 5.29 13.47 6.73 5.12 1.44 10.65 2.16 16.59 2.16 7.69 0 15.23-1.12 22.61-3.36 7.37-2.25 13.78-6.17 19.23-11.79.16 2.09.45 4.13.85 6.14.4 2 .92 3.96 1.56 5.89h34.63c-1.6-2.56-2.73-6.41-3.36-11.54zm-35.12-36.56c0 1.92-.2 4.49-.6 7.7-.4 3.21-1.48 6.37-3.25 9.49-1.76 3.13-4.49 5.82-8.17 8.06-3.69 2.25-8.9 3.37-15.63 3.37-2.73 0-5.38-.24-7.94-.72-2.57-.48-4.81-1.33-6.74-2.53-1.92-1.2-3.45-2.84-4.56-4.93-1.13-2.08-1.69-4.65-1.69-7.7 0-3.2.56-5.84 1.69-7.93 1.11-2.08 2.6-3.81 4.44-5.17 1.85-1.36 4.01-2.45 6.5-3.25 2.48-.8 5.01-1.44 7.57-1.92 2.73-.48 5.45-.88 8.18-1.21 2.72-.32 5.33-.72 7.82-1.2 2.48-.48 4.81-1.08 6.97-1.8s3.97-1.72 5.41-3.01v12.75zm239.05-33.43c-2.25-8.82-5.89-16.67-10.94-23.57-5.05-6.89-11.51-12.39-19.36-16.47-7.86-4.09-17.08-6.14-27.66-6.14-9.46 0-18.08 1.69-25.85 5.05-7.78 3.37-14.47 7.98-20.08 13.83-5.62 5.86-9.95 12.79-12.99 20.81-3.05 8.01-4.57 16.67-4.57 25.97 0 9.62 1.48 18.44 4.45 26.45 2.96 8.02 7.17 14.92 12.62 20.69 5.45 5.77 12.11 10.22 19.97 13.34 7.85 3.13 16.67 4.69 26.45 4.69 14.11 0 26.13-3.2 36.08-9.61 9.93-6.42 17.31-17.08 22.12-31.99h-30.06c-1.12 3.85-4.17 7.5-9.14 10.94-4.97 3.45-10.91 5.17-17.8 5.17-9.62 0-16.99-2.48-22.12-7.45-5.14-4.97-7.94-12.99-8.42-24.05h89.71c.63-9.62-.16-18.84-2.41-27.66zm-87.3 6.01c.16-2.4.68-5.13 1.56-8.17.88-3.05 2.41-5.93 4.57-8.66 2.17-2.73 5.05-5.01 8.66-6.86 3.61-1.84 8.14-2.76 13.59-2.76 8.33 0 14.55 2.24 18.64 6.73s6.93 11.06 8.54 19.72h-55.56zM.002 0v34.54h588.53V0H.002zM476.412 98.67v22.85h-25.01v102.69h-34.15V121.52h-20.68V98.67h20.68V61.39h34.15v37.28zM192.632 98.67v22.85h-25.01v102.69h-34.15V121.52h-20.68V98.67h20.68V61.39h34.15v37.28z" fill="#00f"></path></svg>